%FSLAX45Y45*%
G04 Gerber Fmt 4.5, Leading zero omitted, Abs format (unit mm)*
G04 Created by KiCad (PCBNEW 5.1.9+dfsg1-1) date 2022-02-22 21:23:56*
%MOMM*%
%LPD*%
G01*
G04 APERTURE LIST*
%TA.AperFunction,Profile*%
%ADD10C,0.050000*%
%TD*%
%ADD11C,0.200000*%
%ADD12C,0.300000*%
G04 APERTURE END LIST*
D10*
X6096000Y-7366000D02*
X11811000Y-7366000D01*
X5842000Y-1905000D02*
X5842000Y-7112000D01*
X12065000Y-7112000D02*
G75*
G02*
X11811000Y-7366000I-254000J0D01*
G01*
X12065000Y-1905000D02*
X12065000Y-7112000D01*
X11811000Y-1651000D02*
G75*
G02*
X12065000Y-1905000I0J-254000D01*
G01*
X6096000Y-7366000D02*
G75*
G02*
X5842000Y-7112000I0J254000D01*
G01*
X5842000Y-1905000D02*
G75*
G02*
X6096000Y-1651000I254000J0D01*
G01*
X6096000Y-1651000D02*
X11811000Y-1651000D01*
D11*
X6183368Y-1865272D02*
X6263368Y-1945272D01*
X6263368Y-1865272D02*
X6183368Y-1945272D01*
X6183368Y-2119272D02*
X6263368Y-2199272D01*
X6263368Y-2119272D02*
X6183368Y-2199272D01*
X6183368Y-2373272D02*
X6263368Y-2453272D01*
X6263368Y-2373272D02*
X6183368Y-2453272D01*
X6183368Y-2627272D02*
X6263368Y-2707272D01*
X6263368Y-2627272D02*
X6183368Y-2707272D01*
X6183368Y-2881272D02*
X6263368Y-2961272D01*
X6263368Y-2881272D02*
X6183368Y-2961272D01*
X6183368Y-3135272D02*
X6263368Y-3215272D01*
X6263368Y-3135272D02*
X6183368Y-3215272D01*
X6183368Y-3389272D02*
X6263368Y-3469272D01*
X6263368Y-3389272D02*
X6183368Y-3469272D01*
X6183368Y-3643272D02*
X6263368Y-3723272D01*
X6263368Y-3643272D02*
X6183368Y-3723272D01*
X6183368Y-3897272D02*
X6263368Y-3977272D01*
X6263368Y-3897272D02*
X6183368Y-3977272D01*
X6183368Y-4151272D02*
X6263368Y-4231272D01*
X6263368Y-4151272D02*
X6183368Y-4231272D01*
X6183368Y-4405272D02*
X6263368Y-4485272D01*
X6263368Y-4405272D02*
X6183368Y-4485272D01*
X6183368Y-4659272D02*
X6263368Y-4739272D01*
X6263368Y-4659272D02*
X6183368Y-4739272D01*
X6183368Y-4913272D02*
X6263368Y-4993272D01*
X6263368Y-4913272D02*
X6183368Y-4993272D01*
X6183368Y-5167272D02*
X6263368Y-5247272D01*
X6263368Y-5167272D02*
X6183368Y-5247272D01*
X6183368Y-5421272D02*
X6263368Y-5501272D01*
X6263368Y-5421272D02*
X6183368Y-5501272D01*
X6183368Y-5675272D02*
X6263368Y-5755272D01*
X6263368Y-5675272D02*
X6183368Y-5755272D01*
X6183368Y-5929272D02*
X6263368Y-6009272D01*
X6263368Y-5929272D02*
X6183368Y-6009272D01*
X6183368Y-6183272D02*
X6263368Y-6263272D01*
X6263368Y-6183272D02*
X6183368Y-6263272D01*
X6183368Y-6437272D02*
X6263368Y-6517272D01*
X6263368Y-6437272D02*
X6183368Y-6517272D01*
X8723000Y-6183000D02*
X8803000Y-6263000D01*
X8803000Y-6183000D02*
X8723000Y-6263000D01*
X8723000Y-6437000D02*
X8803000Y-6517000D01*
X8803000Y-6437000D02*
X8723000Y-6517000D01*
X8723368Y-1865272D02*
X8803368Y-1945272D01*
X8803368Y-1865272D02*
X8723368Y-1945272D01*
X8723368Y-2119272D02*
X8803368Y-2199272D01*
X8803368Y-2119272D02*
X8723368Y-2199272D01*
X8723368Y-2373272D02*
X8803368Y-2453272D01*
X8803368Y-2373272D02*
X8723368Y-2453272D01*
X8723368Y-2627272D02*
X8803368Y-2707272D01*
X8803368Y-2627272D02*
X8723368Y-2707272D01*
X8723368Y-2881272D02*
X8803368Y-2961272D01*
X8803368Y-2881272D02*
X8723368Y-2961272D01*
X8723368Y-3135272D02*
X8803368Y-3215272D01*
X8803368Y-3135272D02*
X8723368Y-3215272D01*
X8723368Y-3389272D02*
X8803368Y-3469272D01*
X8803368Y-3389272D02*
X8723368Y-3469272D01*
X8723368Y-3643272D02*
X8803368Y-3723272D01*
X8803368Y-3643272D02*
X8723368Y-3723272D01*
X8723368Y-3897272D02*
X8803368Y-3977272D01*
X8803368Y-3897272D02*
X8723368Y-3977272D01*
X8723368Y-4151272D02*
X8803368Y-4231272D01*
X8803368Y-4151272D02*
X8723368Y-4231272D01*
X8723368Y-4405272D02*
X8803368Y-4485272D01*
X8803368Y-4405272D02*
X8723368Y-4485272D01*
X8723368Y-4659272D02*
X8803368Y-4739272D01*
X8803368Y-4659272D02*
X8723368Y-4739272D01*
X8723368Y-4913272D02*
X8803368Y-4993272D01*
X8803368Y-4913272D02*
X8723368Y-4993272D01*
X8723368Y-5167272D02*
X8803368Y-5247272D01*
X8803368Y-5167272D02*
X8723368Y-5247272D01*
X8723368Y-5421272D02*
X8803368Y-5501272D01*
X8803368Y-5421272D02*
X8723368Y-5501272D01*
X8723368Y-5675272D02*
X8803368Y-5755272D01*
X8803368Y-5675272D02*
X8723368Y-5755272D01*
X8723368Y-5929272D02*
X8803368Y-6009272D01*
X8803368Y-5929272D02*
X8723368Y-6009272D01*
X9231000Y-2119000D02*
X9311000Y-2199000D01*
X9311000Y-2119000D02*
X9231000Y-2199000D01*
X9231000Y-2373000D02*
X9311000Y-2453000D01*
X9311000Y-2373000D02*
X9231000Y-2453000D01*
X9231000Y-2627000D02*
X9311000Y-2707000D01*
X9311000Y-2627000D02*
X9231000Y-2707000D01*
X9231000Y-2881000D02*
X9311000Y-2961000D01*
X9311000Y-2881000D02*
X9231000Y-2961000D01*
X9231000Y-3135000D02*
X9311000Y-3215000D01*
X9311000Y-3135000D02*
X9231000Y-3215000D01*
X9231000Y-3389000D02*
X9311000Y-3469000D01*
X9311000Y-3389000D02*
X9231000Y-3469000D01*
X9231000Y-3643000D02*
X9311000Y-3723000D01*
X9311000Y-3643000D02*
X9231000Y-3723000D01*
X9231000Y-3897000D02*
X9311000Y-3977000D01*
X9311000Y-3897000D02*
X9231000Y-3977000D01*
X9231000Y-4151000D02*
X9311000Y-4231000D01*
X9311000Y-4151000D02*
X9231000Y-4231000D01*
X9231000Y-4405000D02*
X9311000Y-4485000D01*
X9311000Y-4405000D02*
X9231000Y-4485000D01*
X9231000Y-4659000D02*
X9311000Y-4739000D01*
X9311000Y-4659000D02*
X9231000Y-4739000D01*
X9231000Y-4913000D02*
X9311000Y-4993000D01*
X9311000Y-4913000D02*
X9231000Y-4993000D01*
X10501000Y-3008000D02*
X10581000Y-3088000D01*
X10581000Y-3008000D02*
X10501000Y-3088000D01*
X10501000Y-3262000D02*
X10581000Y-3342000D01*
X10581000Y-3262000D02*
X10501000Y-3342000D01*
X10501000Y-4024000D02*
X10581000Y-4104000D01*
X10581000Y-4024000D02*
X10501000Y-4104000D01*
X10501000Y-4278000D02*
X10581000Y-4358000D01*
X10581000Y-4278000D02*
X10501000Y-4358000D01*
X10755000Y-2119000D02*
X10835000Y-2199000D01*
X10835000Y-2119000D02*
X10755000Y-2199000D01*
X10755000Y-2373000D02*
X10835000Y-2453000D01*
X10835000Y-2373000D02*
X10755000Y-2453000D01*
X10755000Y-2627000D02*
X10835000Y-2707000D01*
X10835000Y-2627000D02*
X10755000Y-2707000D01*
X10755000Y-2881000D02*
X10835000Y-2961000D01*
X10835000Y-2881000D02*
X10755000Y-2961000D01*
X10755000Y-3135000D02*
X10835000Y-3215000D01*
X10835000Y-3135000D02*
X10755000Y-3215000D01*
X10755000Y-3389000D02*
X10835000Y-3469000D01*
X10835000Y-3389000D02*
X10755000Y-3469000D01*
X10755000Y-3643000D02*
X10835000Y-3723000D01*
X10835000Y-3643000D02*
X10755000Y-3723000D01*
X10755000Y-3897000D02*
X10835000Y-3977000D01*
X10835000Y-3897000D02*
X10755000Y-3977000D01*
X10755000Y-4151000D02*
X10835000Y-4231000D01*
X10835000Y-4151000D02*
X10755000Y-4231000D01*
X10755000Y-4405000D02*
X10835000Y-4485000D01*
X10835000Y-4405000D02*
X10755000Y-4485000D01*
X10755000Y-4659000D02*
X10835000Y-4739000D01*
X10835000Y-4659000D02*
X10755000Y-4739000D01*
X10755000Y-4913000D02*
X10835000Y-4993000D01*
X10835000Y-4913000D02*
X10755000Y-4993000D01*
X9829000Y-5588000D02*
G75*
G03*
X9829000Y-5588000I-50000J0D01*
G01*
X9829000Y-5842000D02*
G75*
G03*
X9829000Y-5842000I-50000J0D01*
G01*
X9829000Y-6731000D02*
G75*
G03*
X9829000Y-6731000I-50000J0D01*
G01*
X9829000Y-6985000D02*
G75*
G03*
X9829000Y-6985000I-50000J0D01*
G01*
X10083000Y-5588000D02*
G75*
G03*
X10083000Y-5588000I-50000J0D01*
G01*
X10083000Y-5842000D02*
G75*
G03*
X10083000Y-5842000I-50000J0D01*
G01*
X10083000Y-6731000D02*
G75*
G03*
X10083000Y-6731000I-50000J0D01*
G01*
X10083000Y-6985000D02*
G75*
G03*
X10083000Y-6985000I-50000J0D01*
G01*
X10337000Y-5588000D02*
G75*
G03*
X10337000Y-5588000I-50000J0D01*
G01*
X10337000Y-5842000D02*
G75*
G03*
X10337000Y-5842000I-50000J0D01*
G01*
X10337000Y-6731000D02*
G75*
G03*
X10337000Y-6731000I-50000J0D01*
G01*
X10337000Y-6985000D02*
G75*
G03*
X10337000Y-6985000I-50000J0D01*
G01*
X10591000Y-6731000D02*
G75*
G03*
X10591000Y-6731000I-50000J0D01*
G01*
X10591000Y-6985000D02*
G75*
G03*
X10591000Y-6985000I-50000J0D01*
G01*
X10845000Y-6731000D02*
G75*
G03*
X10845000Y-6731000I-50000J0D01*
G01*
X10845000Y-6985000D02*
G75*
G03*
X10845000Y-6985000I-50000J0D01*
G01*
X11226000Y-1905000D02*
G75*
G03*
X11226000Y-1905000I-50000J0D01*
G01*
X11607000Y-2267000D02*
G75*
G03*
X11607000Y-2267000I-50000J0D01*
G01*
X11607000Y-2521000D02*
G75*
G03*
X11607000Y-2521000I-50000J0D01*
G01*
X11607000Y-4445000D02*
G75*
G03*
X11607000Y-4445000I-50000J0D01*
G01*
X11607000Y-4699000D02*
G75*
G03*
X11607000Y-4699000I-50000J0D01*
G01*
X11607000Y-4953000D02*
G75*
G03*
X11607000Y-4953000I-50000J0D01*
G01*
X11607000Y-5207000D02*
G75*
G03*
X11607000Y-5207000I-50000J0D01*
G01*
X11607000Y-5461000D02*
G75*
G03*
X11607000Y-5461000I-50000J0D01*
G01*
X11861000Y-4445000D02*
G75*
G03*
X11861000Y-4445000I-50000J0D01*
G01*
X11861000Y-4699000D02*
G75*
G03*
X11861000Y-4699000I-50000J0D01*
G01*
X11861000Y-4953000D02*
G75*
G03*
X11861000Y-4953000I-50000J0D01*
G01*
X11861000Y-5207000D02*
G75*
G03*
X11861000Y-5207000I-50000J0D01*
G01*
X11861000Y-5461000D02*
G75*
G03*
X11861000Y-5461000I-50000J0D01*
G01*
D12*
X6125928Y-7834214D02*
X6125928Y-7534214D01*
X6197357Y-7534214D01*
X6240214Y-7548500D01*
X6268786Y-7577071D01*
X6283071Y-7605643D01*
X6297357Y-7662786D01*
X6297357Y-7705643D01*
X6283071Y-7762786D01*
X6268786Y-7791357D01*
X6240214Y-7819929D01*
X6197357Y-7834214D01*
X6125928Y-7834214D01*
X6425928Y-7834214D02*
X6425928Y-7634214D01*
X6425928Y-7691357D02*
X6440214Y-7662786D01*
X6454500Y-7648500D01*
X6483071Y-7634214D01*
X6511643Y-7634214D01*
X6611643Y-7834214D02*
X6611643Y-7634214D01*
X6611643Y-7534214D02*
X6597357Y-7548500D01*
X6611643Y-7562786D01*
X6625928Y-7548500D01*
X6611643Y-7534214D01*
X6611643Y-7562786D01*
X6797357Y-7834214D02*
X6768786Y-7819929D01*
X6754500Y-7791357D01*
X6754500Y-7534214D01*
X6954500Y-7834214D02*
X6925928Y-7819929D01*
X6911643Y-7791357D01*
X6911643Y-7534214D01*
X7297357Y-7834214D02*
X7297357Y-7534214D01*
X7397357Y-7748500D01*
X7497357Y-7534214D01*
X7497357Y-7834214D01*
X7768786Y-7834214D02*
X7768786Y-7677071D01*
X7754500Y-7648500D01*
X7725928Y-7634214D01*
X7668786Y-7634214D01*
X7640214Y-7648500D01*
X7768786Y-7819929D02*
X7740214Y-7834214D01*
X7668786Y-7834214D01*
X7640214Y-7819929D01*
X7625928Y-7791357D01*
X7625928Y-7762786D01*
X7640214Y-7734214D01*
X7668786Y-7719929D01*
X7740214Y-7719929D01*
X7768786Y-7705643D01*
X7911643Y-7634214D02*
X7911643Y-7934214D01*
X7911643Y-7648500D02*
X7940214Y-7634214D01*
X7997357Y-7634214D01*
X8025928Y-7648500D01*
X8040214Y-7662786D01*
X8054500Y-7691357D01*
X8054500Y-7777071D01*
X8040214Y-7805643D01*
X8025928Y-7819929D01*
X7997357Y-7834214D01*
X7940214Y-7834214D01*
X7911643Y-7819929D01*
X8183071Y-7805643D02*
X8197357Y-7819929D01*
X8183071Y-7834214D01*
X8168786Y-7819929D01*
X8183071Y-7805643D01*
X8183071Y-7834214D01*
X8183071Y-7648500D02*
X8197357Y-7662786D01*
X8183071Y-7677071D01*
X8168786Y-7662786D01*
X8183071Y-7648500D01*
X8183071Y-7677071D01*
X5759500Y-8288500D02*
X5839500Y-8368500D01*
X5839500Y-8288500D02*
X5759500Y-8368500D01*
X6183071Y-8164214D02*
X6211643Y-8164214D01*
X6240214Y-8178500D01*
X6254500Y-8192786D01*
X6268786Y-8221357D01*
X6283071Y-8278500D01*
X6283071Y-8349929D01*
X6268786Y-8407072D01*
X6254500Y-8435643D01*
X6240214Y-8449929D01*
X6211643Y-8464214D01*
X6183071Y-8464214D01*
X6154500Y-8449929D01*
X6140214Y-8435643D01*
X6125928Y-8407072D01*
X6111643Y-8349929D01*
X6111643Y-8278500D01*
X6125928Y-8221357D01*
X6140214Y-8192786D01*
X6154500Y-8178500D01*
X6183071Y-8164214D01*
X6411643Y-8435643D02*
X6425928Y-8449929D01*
X6411643Y-8464214D01*
X6397357Y-8449929D01*
X6411643Y-8435643D01*
X6411643Y-8464214D01*
X6597357Y-8292786D02*
X6568786Y-8278500D01*
X6554500Y-8264214D01*
X6540214Y-8235643D01*
X6540214Y-8221357D01*
X6554500Y-8192786D01*
X6568786Y-8178500D01*
X6597357Y-8164214D01*
X6654500Y-8164214D01*
X6683071Y-8178500D01*
X6697357Y-8192786D01*
X6711643Y-8221357D01*
X6711643Y-8235643D01*
X6697357Y-8264214D01*
X6683071Y-8278500D01*
X6654500Y-8292786D01*
X6597357Y-8292786D01*
X6568786Y-8307071D01*
X6554500Y-8321357D01*
X6540214Y-8349929D01*
X6540214Y-8407072D01*
X6554500Y-8435643D01*
X6568786Y-8449929D01*
X6597357Y-8464214D01*
X6654500Y-8464214D01*
X6683071Y-8449929D01*
X6697357Y-8435643D01*
X6711643Y-8407072D01*
X6711643Y-8349929D01*
X6697357Y-8321357D01*
X6683071Y-8307071D01*
X6654500Y-8292786D01*
X6897357Y-8164214D02*
X6925928Y-8164214D01*
X6954500Y-8178500D01*
X6968786Y-8192786D01*
X6983071Y-8221357D01*
X6997357Y-8278500D01*
X6997357Y-8349929D01*
X6983071Y-8407072D01*
X6968786Y-8435643D01*
X6954500Y-8449929D01*
X6925928Y-8464214D01*
X6897357Y-8464214D01*
X6868786Y-8449929D01*
X6854500Y-8435643D01*
X6840214Y-8407072D01*
X6825928Y-8349929D01*
X6825928Y-8278500D01*
X6840214Y-8221357D01*
X6854500Y-8192786D01*
X6868786Y-8178500D01*
X6897357Y-8164214D01*
X7125928Y-8464214D02*
X7125928Y-8264214D01*
X7125928Y-8292786D02*
X7140214Y-8278500D01*
X7168786Y-8264214D01*
X7211643Y-8264214D01*
X7240214Y-8278500D01*
X7254500Y-8307071D01*
X7254500Y-8464214D01*
X7254500Y-8307071D02*
X7268786Y-8278500D01*
X7297357Y-8264214D01*
X7340214Y-8264214D01*
X7368786Y-8278500D01*
X7383071Y-8307071D01*
X7383071Y-8464214D01*
X7525928Y-8464214D02*
X7525928Y-8264214D01*
X7525928Y-8292786D02*
X7540214Y-8278500D01*
X7568786Y-8264214D01*
X7611643Y-8264214D01*
X7640214Y-8278500D01*
X7654500Y-8307071D01*
X7654500Y-8464214D01*
X7654500Y-8307071D02*
X7668786Y-8278500D01*
X7697357Y-8264214D01*
X7740214Y-8264214D01*
X7768786Y-8278500D01*
X7783071Y-8307071D01*
X7783071Y-8464214D01*
X8368786Y-8149929D02*
X8111643Y-8535643D01*
X8754500Y-8164214D02*
X8783071Y-8164214D01*
X8811643Y-8178500D01*
X8825928Y-8192786D01*
X8840214Y-8221357D01*
X8854500Y-8278500D01*
X8854500Y-8349929D01*
X8840214Y-8407072D01*
X8825928Y-8435643D01*
X8811643Y-8449929D01*
X8783071Y-8464214D01*
X8754500Y-8464214D01*
X8725928Y-8449929D01*
X8711643Y-8435643D01*
X8697357Y-8407072D01*
X8683071Y-8349929D01*
X8683071Y-8278500D01*
X8697357Y-8221357D01*
X8711643Y-8192786D01*
X8725928Y-8178500D01*
X8754500Y-8164214D01*
X8983071Y-8435643D02*
X8997357Y-8449929D01*
X8983071Y-8464214D01*
X8968786Y-8449929D01*
X8983071Y-8435643D01*
X8983071Y-8464214D01*
X9183071Y-8164214D02*
X9211643Y-8164214D01*
X9240214Y-8178500D01*
X9254500Y-8192786D01*
X9268786Y-8221357D01*
X9283071Y-8278500D01*
X9283071Y-8349929D01*
X9268786Y-8407072D01*
X9254500Y-8435643D01*
X9240214Y-8449929D01*
X9211643Y-8464214D01*
X9183071Y-8464214D01*
X9154500Y-8449929D01*
X9140214Y-8435643D01*
X9125928Y-8407072D01*
X9111643Y-8349929D01*
X9111643Y-8278500D01*
X9125928Y-8221357D01*
X9140214Y-8192786D01*
X9154500Y-8178500D01*
X9183071Y-8164214D01*
X9383071Y-8164214D02*
X9568786Y-8164214D01*
X9468786Y-8278500D01*
X9511643Y-8278500D01*
X9540214Y-8292786D01*
X9554500Y-8307071D01*
X9568786Y-8335643D01*
X9568786Y-8407072D01*
X9554500Y-8435643D01*
X9540214Y-8449929D01*
X9511643Y-8464214D01*
X9425928Y-8464214D01*
X9397357Y-8449929D01*
X9383071Y-8435643D01*
X9854500Y-8464214D02*
X9683071Y-8464214D01*
X9768786Y-8464214D02*
X9768786Y-8164214D01*
X9740214Y-8207071D01*
X9711643Y-8235643D01*
X9683071Y-8249929D01*
X9968786Y-8164214D02*
X9968786Y-8221357D01*
X10083071Y-8164214D02*
X10083071Y-8221357D01*
X10525928Y-8578500D02*
X10511643Y-8564214D01*
X10483071Y-8521357D01*
X10468786Y-8492786D01*
X10454500Y-8449929D01*
X10440214Y-8378500D01*
X10440214Y-8321357D01*
X10454500Y-8249929D01*
X10468786Y-8207071D01*
X10483071Y-8178500D01*
X10511643Y-8135643D01*
X10525928Y-8121357D01*
X10768786Y-8164214D02*
X10711643Y-8164214D01*
X10683071Y-8178500D01*
X10668786Y-8192786D01*
X10640214Y-8235643D01*
X10625928Y-8292786D01*
X10625928Y-8407072D01*
X10640214Y-8435643D01*
X10654500Y-8449929D01*
X10683071Y-8464214D01*
X10740214Y-8464214D01*
X10768786Y-8449929D01*
X10783071Y-8435643D01*
X10797357Y-8407072D01*
X10797357Y-8335643D01*
X10783071Y-8307071D01*
X10768786Y-8292786D01*
X10740214Y-8278500D01*
X10683071Y-8278500D01*
X10654500Y-8292786D01*
X10640214Y-8307071D01*
X10625928Y-8335643D01*
X11054500Y-8164214D02*
X10997357Y-8164214D01*
X10968786Y-8178500D01*
X10954500Y-8192786D01*
X10925928Y-8235643D01*
X10911643Y-8292786D01*
X10911643Y-8407072D01*
X10925928Y-8435643D01*
X10940214Y-8449929D01*
X10968786Y-8464214D01*
X11025928Y-8464214D01*
X11054500Y-8449929D01*
X11068786Y-8435643D01*
X11083071Y-8407072D01*
X11083071Y-8335643D01*
X11068786Y-8307071D01*
X11054500Y-8292786D01*
X11025928Y-8278500D01*
X10968786Y-8278500D01*
X10940214Y-8292786D01*
X10925928Y-8307071D01*
X10911643Y-8335643D01*
X11440214Y-8464214D02*
X11440214Y-8164214D01*
X11568786Y-8464214D02*
X11568786Y-8307071D01*
X11554500Y-8278500D01*
X11525928Y-8264214D01*
X11483071Y-8264214D01*
X11454500Y-8278500D01*
X11440214Y-8292786D01*
X11754500Y-8464214D02*
X11725928Y-8449929D01*
X11711643Y-8435643D01*
X11697357Y-8407072D01*
X11697357Y-8321357D01*
X11711643Y-8292786D01*
X11725928Y-8278500D01*
X11754500Y-8264214D01*
X11797357Y-8264214D01*
X11825928Y-8278500D01*
X11840214Y-8292786D01*
X11854500Y-8321357D01*
X11854500Y-8407072D01*
X11840214Y-8435643D01*
X11825928Y-8449929D01*
X11797357Y-8464214D01*
X11754500Y-8464214D01*
X12025928Y-8464214D02*
X11997357Y-8449929D01*
X11983071Y-8421357D01*
X11983071Y-8164214D01*
X12254500Y-8449929D02*
X12225928Y-8464214D01*
X12168786Y-8464214D01*
X12140214Y-8449929D01*
X12125928Y-8421357D01*
X12125928Y-8307071D01*
X12140214Y-8278500D01*
X12168786Y-8264214D01*
X12225928Y-8264214D01*
X12254500Y-8278500D01*
X12268786Y-8307071D01*
X12268786Y-8335643D01*
X12125928Y-8364214D01*
X12383071Y-8449929D02*
X12411643Y-8464214D01*
X12468786Y-8464214D01*
X12497357Y-8449929D01*
X12511643Y-8421357D01*
X12511643Y-8407072D01*
X12497357Y-8378500D01*
X12468786Y-8364214D01*
X12425928Y-8364214D01*
X12397357Y-8349929D01*
X12383071Y-8321357D01*
X12383071Y-8307071D01*
X12397357Y-8278500D01*
X12425928Y-8264214D01*
X12468786Y-8264214D01*
X12497357Y-8278500D01*
X12611643Y-8578500D02*
X12625928Y-8564214D01*
X12654500Y-8521357D01*
X12668786Y-8492786D01*
X12683071Y-8449929D01*
X12697357Y-8378500D01*
X12697357Y-8321357D01*
X12683071Y-8249929D01*
X12668786Y-8207071D01*
X12654500Y-8178500D01*
X12625928Y-8135643D01*
X12611643Y-8121357D01*
X5839500Y-8724500D02*
G75*
G03*
X5839500Y-8724500I-50000J0D01*
G01*
X6283071Y-8860214D02*
X6111643Y-8860214D01*
X6197357Y-8860214D02*
X6197357Y-8560214D01*
X6168786Y-8603072D01*
X6140214Y-8631643D01*
X6111643Y-8645929D01*
X6411643Y-8831643D02*
X6425928Y-8845929D01*
X6411643Y-8860214D01*
X6397357Y-8845929D01*
X6411643Y-8831643D01*
X6411643Y-8860214D01*
X6611643Y-8560214D02*
X6640214Y-8560214D01*
X6668786Y-8574500D01*
X6683071Y-8588786D01*
X6697357Y-8617357D01*
X6711643Y-8674500D01*
X6711643Y-8745929D01*
X6697357Y-8803072D01*
X6683071Y-8831643D01*
X6668786Y-8845929D01*
X6640214Y-8860214D01*
X6611643Y-8860214D01*
X6583071Y-8845929D01*
X6568786Y-8831643D01*
X6554500Y-8803072D01*
X6540214Y-8745929D01*
X6540214Y-8674500D01*
X6554500Y-8617357D01*
X6568786Y-8588786D01*
X6583071Y-8574500D01*
X6611643Y-8560214D01*
X6897357Y-8560214D02*
X6925928Y-8560214D01*
X6954500Y-8574500D01*
X6968786Y-8588786D01*
X6983071Y-8617357D01*
X6997357Y-8674500D01*
X6997357Y-8745929D01*
X6983071Y-8803072D01*
X6968786Y-8831643D01*
X6954500Y-8845929D01*
X6925928Y-8860214D01*
X6897357Y-8860214D01*
X6868786Y-8845929D01*
X6854500Y-8831643D01*
X6840214Y-8803072D01*
X6825928Y-8745929D01*
X6825928Y-8674500D01*
X6840214Y-8617357D01*
X6854500Y-8588786D01*
X6868786Y-8574500D01*
X6897357Y-8560214D01*
X7125928Y-8860214D02*
X7125928Y-8660214D01*
X7125928Y-8688786D02*
X7140214Y-8674500D01*
X7168786Y-8660214D01*
X7211643Y-8660214D01*
X7240214Y-8674500D01*
X7254500Y-8703072D01*
X7254500Y-8860214D01*
X7254500Y-8703072D02*
X7268786Y-8674500D01*
X7297357Y-8660214D01*
X7340214Y-8660214D01*
X7368786Y-8674500D01*
X7383071Y-8703072D01*
X7383071Y-8860214D01*
X7525928Y-8860214D02*
X7525928Y-8660214D01*
X7525928Y-8688786D02*
X7540214Y-8674500D01*
X7568786Y-8660214D01*
X7611643Y-8660214D01*
X7640214Y-8674500D01*
X7654500Y-8703072D01*
X7654500Y-8860214D01*
X7654500Y-8703072D02*
X7668786Y-8674500D01*
X7697357Y-8660214D01*
X7740214Y-8660214D01*
X7768786Y-8674500D01*
X7783071Y-8703072D01*
X7783071Y-8860214D01*
X8368786Y-8545929D02*
X8111643Y-8931643D01*
X8754500Y-8560214D02*
X8783071Y-8560214D01*
X8811643Y-8574500D01*
X8825928Y-8588786D01*
X8840214Y-8617357D01*
X8854500Y-8674500D01*
X8854500Y-8745929D01*
X8840214Y-8803072D01*
X8825928Y-8831643D01*
X8811643Y-8845929D01*
X8783071Y-8860214D01*
X8754500Y-8860214D01*
X8725928Y-8845929D01*
X8711643Y-8831643D01*
X8697357Y-8803072D01*
X8683071Y-8745929D01*
X8683071Y-8674500D01*
X8697357Y-8617357D01*
X8711643Y-8588786D01*
X8725928Y-8574500D01*
X8754500Y-8560214D01*
X8983071Y-8831643D02*
X8997357Y-8845929D01*
X8983071Y-8860214D01*
X8968786Y-8845929D01*
X8983071Y-8831643D01*
X8983071Y-8860214D01*
X9183071Y-8560214D02*
X9211643Y-8560214D01*
X9240214Y-8574500D01*
X9254500Y-8588786D01*
X9268786Y-8617357D01*
X9283071Y-8674500D01*
X9283071Y-8745929D01*
X9268786Y-8803072D01*
X9254500Y-8831643D01*
X9240214Y-8845929D01*
X9211643Y-8860214D01*
X9183071Y-8860214D01*
X9154500Y-8845929D01*
X9140214Y-8831643D01*
X9125928Y-8803072D01*
X9111643Y-8745929D01*
X9111643Y-8674500D01*
X9125928Y-8617357D01*
X9140214Y-8588786D01*
X9154500Y-8574500D01*
X9183071Y-8560214D01*
X9383071Y-8560214D02*
X9568786Y-8560214D01*
X9468786Y-8674500D01*
X9511643Y-8674500D01*
X9540214Y-8688786D01*
X9554500Y-8703072D01*
X9568786Y-8731643D01*
X9568786Y-8803072D01*
X9554500Y-8831643D01*
X9540214Y-8845929D01*
X9511643Y-8860214D01*
X9425928Y-8860214D01*
X9397357Y-8845929D01*
X9383071Y-8831643D01*
X9711643Y-8860214D02*
X9768786Y-8860214D01*
X9797357Y-8845929D01*
X9811643Y-8831643D01*
X9840214Y-8788786D01*
X9854500Y-8731643D01*
X9854500Y-8617357D01*
X9840214Y-8588786D01*
X9825928Y-8574500D01*
X9797357Y-8560214D01*
X9740214Y-8560214D01*
X9711643Y-8574500D01*
X9697357Y-8588786D01*
X9683071Y-8617357D01*
X9683071Y-8688786D01*
X9697357Y-8717357D01*
X9711643Y-8731643D01*
X9740214Y-8745929D01*
X9797357Y-8745929D01*
X9825928Y-8731643D01*
X9840214Y-8717357D01*
X9854500Y-8688786D01*
X9968786Y-8560214D02*
X9968786Y-8617357D01*
X10083071Y-8560214D02*
X10083071Y-8617357D01*
X10525928Y-8974500D02*
X10511643Y-8960214D01*
X10483071Y-8917357D01*
X10468786Y-8888786D01*
X10454500Y-8845929D01*
X10440214Y-8774500D01*
X10440214Y-8717357D01*
X10454500Y-8645929D01*
X10468786Y-8603072D01*
X10483071Y-8574500D01*
X10511643Y-8531643D01*
X10525928Y-8517357D01*
X10625928Y-8588786D02*
X10640214Y-8574500D01*
X10668786Y-8560214D01*
X10740214Y-8560214D01*
X10768786Y-8574500D01*
X10783071Y-8588786D01*
X10797357Y-8617357D01*
X10797357Y-8645929D01*
X10783071Y-8688786D01*
X10611643Y-8860214D01*
X10797357Y-8860214D01*
X10940214Y-8860214D02*
X10997357Y-8860214D01*
X11025928Y-8845929D01*
X11040214Y-8831643D01*
X11068786Y-8788786D01*
X11083071Y-8731643D01*
X11083071Y-8617357D01*
X11068786Y-8588786D01*
X11054500Y-8574500D01*
X11025928Y-8560214D01*
X10968786Y-8560214D01*
X10940214Y-8574500D01*
X10925928Y-8588786D01*
X10911643Y-8617357D01*
X10911643Y-8688786D01*
X10925928Y-8717357D01*
X10940214Y-8731643D01*
X10968786Y-8745929D01*
X11025928Y-8745929D01*
X11054500Y-8731643D01*
X11068786Y-8717357D01*
X11083071Y-8688786D01*
X11440214Y-8860214D02*
X11440214Y-8560214D01*
X11568786Y-8860214D02*
X11568786Y-8703072D01*
X11554500Y-8674500D01*
X11525928Y-8660214D01*
X11483071Y-8660214D01*
X11454500Y-8674500D01*
X11440214Y-8688786D01*
X11754500Y-8860214D02*
X11725928Y-8845929D01*
X11711643Y-8831643D01*
X11697357Y-8803072D01*
X11697357Y-8717357D01*
X11711643Y-8688786D01*
X11725928Y-8674500D01*
X11754500Y-8660214D01*
X11797357Y-8660214D01*
X11825928Y-8674500D01*
X11840214Y-8688786D01*
X11854500Y-8717357D01*
X11854500Y-8803072D01*
X11840214Y-8831643D01*
X11825928Y-8845929D01*
X11797357Y-8860214D01*
X11754500Y-8860214D01*
X12025928Y-8860214D02*
X11997357Y-8845929D01*
X11983071Y-8817357D01*
X11983071Y-8560214D01*
X12254500Y-8845929D02*
X12225928Y-8860214D01*
X12168786Y-8860214D01*
X12140214Y-8845929D01*
X12125928Y-8817357D01*
X12125928Y-8703072D01*
X12140214Y-8674500D01*
X12168786Y-8660214D01*
X12225928Y-8660214D01*
X12254500Y-8674500D01*
X12268786Y-8703072D01*
X12268786Y-8731643D01*
X12125928Y-8760214D01*
X12383071Y-8845929D02*
X12411643Y-8860214D01*
X12468786Y-8860214D01*
X12497357Y-8845929D01*
X12511643Y-8817357D01*
X12511643Y-8803072D01*
X12497357Y-8774500D01*
X12468786Y-8760214D01*
X12425928Y-8760214D01*
X12397357Y-8745929D01*
X12383071Y-8717357D01*
X12383071Y-8703072D01*
X12397357Y-8674500D01*
X12425928Y-8660214D01*
X12468786Y-8660214D01*
X12497357Y-8674500D01*
X12611643Y-8974500D02*
X12625928Y-8960214D01*
X12654500Y-8917357D01*
X12668786Y-8888786D01*
X12683071Y-8845929D01*
X12697357Y-8774500D01*
X12697357Y-8717357D01*
X12683071Y-8645929D01*
X12668786Y-8603072D01*
X12654500Y-8574500D01*
X12625928Y-8531643D01*
X12611643Y-8517357D01*
M02*
