M48
; DRILL file {KiCad 5.1.9+dfsg1-1} date Tue Feb 22 21:23:57 2022
; FORMAT={-:-/ absolute / metric / decimal}
; #@! TF.CreationDate,2022-02-22T21:23:57+01:00
; #@! TF.GenerationSoftware,Kicad,Pcbnew,5.1.9+dfsg1-1
; #@! TF.FileFunction,Plated,1,2,PTH
FMAT,2
METRIC
T1C0.800
T2C1.000
%
G90
G05
T1
X62.234Y-19.053
X62.234Y-21.593
X62.234Y-24.133
X62.234Y-26.673
X62.234Y-29.213
X62.234Y-31.753
X62.234Y-34.293
X62.234Y-36.833
X62.234Y-39.373
X62.234Y-41.913
X62.234Y-44.453
X62.234Y-46.993
X62.234Y-49.533
X62.234Y-52.073
X62.234Y-54.613
X62.234Y-57.153
X62.234Y-59.693
X62.234Y-62.233
X62.234Y-64.773
X87.63Y-62.23
X87.63Y-64.77
X87.634Y-19.053
X87.634Y-21.593
X87.634Y-24.133
X87.634Y-26.673
X87.634Y-29.213
X87.634Y-31.753
X87.634Y-34.293
X87.634Y-36.833
X87.634Y-39.373
X87.634Y-41.913
X87.634Y-44.453
X87.634Y-46.993
X87.634Y-49.533
X87.634Y-52.073
X87.634Y-54.613
X87.634Y-57.153
X87.634Y-59.693
X92.71Y-21.59
X92.71Y-24.13
X92.71Y-26.67
X92.71Y-29.21
X92.71Y-31.75
X92.71Y-34.29
X92.71Y-36.83
X92.71Y-39.37
X92.71Y-41.91
X92.71Y-44.45
X92.71Y-46.99
X92.71Y-49.53
X105.41Y-30.48
X105.41Y-33.02
X105.41Y-40.64
X105.41Y-43.18
X107.95Y-21.59
X107.95Y-24.13
X107.95Y-26.67
X107.95Y-29.21
X107.95Y-31.75
X107.95Y-34.29
X107.95Y-36.83
X107.95Y-39.37
X107.95Y-41.91
X107.95Y-44.45
X107.95Y-46.99
X107.95Y-49.53
T2
X97.79Y-55.88
X97.79Y-58.42
X97.79Y-67.31
X97.79Y-69.85
X100.33Y-55.88
X100.33Y-58.42
X100.33Y-67.31
X100.33Y-69.85
X102.87Y-55.88
X102.87Y-58.42
X102.87Y-67.31
X102.87Y-69.85
X105.41Y-67.31
X105.41Y-69.85
X107.95Y-67.31
X107.95Y-69.85
X111.76Y-19.05
X115.57Y-22.67
X115.57Y-25.21
X115.57Y-44.45
X115.57Y-46.99
X115.57Y-49.53
X115.57Y-52.07
X115.57Y-54.61
X118.11Y-44.45
X118.11Y-46.99
X118.11Y-49.53
X118.11Y-52.07
X118.11Y-54.61
T0
M30
