%FSLAX45Y45*%
G04 Gerber Fmt 4.5, Leading zero omitted, Abs format (unit mm)*
G04 Created by KiCad (PCBNEW 5.1.9+dfsg1-1) date 2022-02-22 21:23:56*
%MOMM*%
%LPD*%
G01*
G04 APERTURE LIST*
%TA.AperFunction,Profile*%
%ADD10C,0.050000*%
%TD*%
%ADD11C,0.200000*%
%ADD12C,0.300000*%
G04 APERTURE END LIST*
D10*
X6096000Y-7366000D02*
X11811000Y-7366000D01*
X5842000Y-1905000D02*
X5842000Y-7112000D01*
X12065000Y-7112000D02*
G75*
G02*
X11811000Y-7366000I-254000J0D01*
G01*
X12065000Y-1905000D02*
X12065000Y-7112000D01*
X11811000Y-1651000D02*
G75*
G02*
X12065000Y-1905000I0J-254000D01*
G01*
X6096000Y-7366000D02*
G75*
G02*
X5842000Y-7112000I0J254000D01*
G01*
X5842000Y-1905000D02*
G75*
G02*
X6096000Y-1651000I254000J0D01*
G01*
X6096000Y-1651000D02*
X11811000Y-1651000D01*
D11*
D12*
X6125928Y-7834214D02*
X6125928Y-7534214D01*
X6197357Y-7534214D01*
X6240214Y-7548500D01*
X6268786Y-7577071D01*
X6283071Y-7605643D01*
X6297357Y-7662786D01*
X6297357Y-7705643D01*
X6283071Y-7762786D01*
X6268786Y-7791357D01*
X6240214Y-7819929D01*
X6197357Y-7834214D01*
X6125928Y-7834214D01*
X6425928Y-7834214D02*
X6425928Y-7634214D01*
X6425928Y-7691357D02*
X6440214Y-7662786D01*
X6454500Y-7648500D01*
X6483071Y-7634214D01*
X6511643Y-7634214D01*
X6611643Y-7834214D02*
X6611643Y-7634214D01*
X6611643Y-7534214D02*
X6597357Y-7548500D01*
X6611643Y-7562786D01*
X6625928Y-7548500D01*
X6611643Y-7534214D01*
X6611643Y-7562786D01*
X6797357Y-7834214D02*
X6768786Y-7819929D01*
X6754500Y-7791357D01*
X6754500Y-7534214D01*
X6954500Y-7834214D02*
X6925928Y-7819929D01*
X6911643Y-7791357D01*
X6911643Y-7534214D01*
X7297357Y-7834214D02*
X7297357Y-7534214D01*
X7397357Y-7748500D01*
X7497357Y-7534214D01*
X7497357Y-7834214D01*
X7768786Y-7834214D02*
X7768786Y-7677071D01*
X7754500Y-7648500D01*
X7725928Y-7634214D01*
X7668786Y-7634214D01*
X7640214Y-7648500D01*
X7768786Y-7819929D02*
X7740214Y-7834214D01*
X7668786Y-7834214D01*
X7640214Y-7819929D01*
X7625928Y-7791357D01*
X7625928Y-7762786D01*
X7640214Y-7734214D01*
X7668786Y-7719929D01*
X7740214Y-7719929D01*
X7768786Y-7705643D01*
X7911643Y-7634214D02*
X7911643Y-7934214D01*
X7911643Y-7648500D02*
X7940214Y-7634214D01*
X7997357Y-7634214D01*
X8025928Y-7648500D01*
X8040214Y-7662786D01*
X8054500Y-7691357D01*
X8054500Y-7777071D01*
X8040214Y-7805643D01*
X8025928Y-7819929D01*
X7997357Y-7834214D01*
X7940214Y-7834214D01*
X7911643Y-7819929D01*
X8183071Y-7805643D02*
X8197357Y-7819929D01*
X8183071Y-7834214D01*
X8168786Y-7819929D01*
X8183071Y-7805643D01*
X8183071Y-7834214D01*
X8183071Y-7648500D02*
X8197357Y-7662786D01*
X8183071Y-7677071D01*
X8168786Y-7662786D01*
X8183071Y-7648500D01*
X8183071Y-7677071D01*
M02*
